<svg width="13" height="14" viewBox="0 0 13 14" fill="none" xmlns="http://www.w3.org/2000/svg">
<path d="M3.02306 7.64589C2.99673 7.62306 2.98739 7.58639 2.99956 7.55373C3.01173 7.52106 3.04289 7.49973 3.07773 7.49973H9.85046V7.50573V6.49973H3.07823C3.04356 6.49973 3.01223 6.47839 3.00006 6.44573C2.98806 6.41323 2.99723 6.37656 3.02356 6.35356L5.99993 3.80003L5.39993 3.00003L1.10856 6.69773C1.02556 6.77006 0.978058 6.88006 0.978058 6.99989C0.978058 7.11989 1.02556 7.23006 1.10856 7.30239L5.39993 11L5.99993 10.2L3.02306 7.64589Z" fill="#E0E6ED"/>
<path d="M12.9999 0.599983H6.60005L6.59995 5.48767H10.786V8.43179H6.59995V13.4L12.9999 13.3193V0.599983Z" fill="#E0E6ED"/>
</svg>
