<svg width="16" height="16" viewBox="0 0 16 16" fill="none" xmlns="http://www.w3.org/2000/svg">
<path fill-rule="evenodd" clip-rule="evenodd" d="M8.96869 12.274C11.1605 12.274 12.9374 10.3604 12.9374 8C12.9374 5.63955 11.1605 3.72603 8.96869 3.72603C6.77684 3.72603 5 5.69863 5 7.67123H6.22113C6.23522 7.78112 5 9.31507 5 9.31507C5.30528 10.9589 7.09206 12.274 8.96869 12.274ZM8.29911 8.27747V4.82213H9.36745V7.72301L10.7943 8.9475L10.1287 9.8475L8.29911 8.27747Z" fill="#E0E6ED"/>
<path d="M9.01111 2C5.70868 2 3.02221 4.69162 3.02221 8H2L3.73333 10.1732L5.46683 8H4.17093C4.17093 5.32597 6.34203 3.15068 9.01127 3.15068C11.6802 3.15068 13.8516 5.32597 13.8516 8C13.8516 10.674 11.6802 12.8493 9.01127 12.8493C7.70865 12.8493 6.48626 12.3384 5.57004 11.4103L4.75341 12.2197C5.8872 13.3676 7.39919 14 9.01111 14C12.3132 14 15 11.3084 15 8C15 4.69162 12.3132 2 9.01111 2Z" fill="#E0E6ED"/>
</svg>
