<svg width="22" height="22" viewBox="0 0 22 22" fill="none" xmlns="http://www.w3.org/2000/svg">
<path d="M11 0C17.0665 0 22 4.93361 22 11C22 17.0664 17.0664 22 11 22C4.93361 22 0 17.0664 0 11C0 4.93361 4.93361 0 11 0ZM11 1.46663C5.72634 1.46663 1.46642 5.72618 1.46642 11.0002C1.46642 12.7852 1.95315 14.4547 2.80319 15.8816C4.81706 13.6343 7.74769 12.2224 10.9999 12.2224C14.2558 12.2224 17.1836 13.637 19.1966 15.8892C20.0489 14.4611 20.5334 12.7876 20.5334 11.0004C20.5334 5.7267 16.274 1.46663 11 1.46663ZM11 2.19995C13.5564 2.19995 15.6445 4.28799 15.6445 6.8444C15.6445 9.40082 13.5564 11.4889 11 11.4889C8.44359 11.4889 6.35554 9.40082 6.35554 6.8444C6.35554 4.28799 8.44359 2.19995 11 2.19995Z" fill="#55B8FF"/>
</svg>
