<svg width="13" height="13" viewBox="0 0 13 13" fill="none" xmlns="http://www.w3.org/2000/svg">
<path fill-rule="evenodd" clip-rule="evenodd" d="M9.3062 7.25802C11.7668 8.45212 12.3095 9.89952 12.1286 12.2154C12.0924 12.5772 11.803 12.8667 11.4411 12.8667H1.09224C0.730389 12.8667 0.44091 12.5772 0.404725 12.2154C0.223801 9.89952 0.766574 8.45212 3.22714 7.25802C3.44425 7.11328 3.69755 7.14947 3.91466 7.29421C4.60217 7.72843 5.39824 7.98172 6.26667 7.98172C7.13511 7.98172 7.93118 7.72843 8.61869 7.29421C8.8358 7.14947 9.08909 7.11328 9.3062 7.25802Z" fill="#E0E6ED"/>
<path fill-rule="evenodd" clip-rule="evenodd" d="M6.2667 0.600016C7.93121 0.600016 9.30623 1.97504 9.30623 3.63954C9.30623 5.30405 7.93121 6.67907 6.2667 6.67907C4.6022 6.67907 3.22717 5.30405 3.22717 3.63954C3.22717 1.97504 4.6022 0.600016 6.2667 0.600016Z" fill="#E0E6ED"/>
</svg>
